<svg xmlns="http://www.w3.org/2000/svg" viewBox="0 0 160 144"><circle cx="80" cy="72" r="52" fill="#202b27" stroke="#897655" stroke-width="3"/><polyline points="30.0,90 36.2,45 42.5,90 48.8,45 55.0,90 61.2,45 67.5,90 73.8,45 80.0,90 86.2,45 92.5,90 98.8,45 105.0,90 111.2,45 117.5,90 123.8,45 130.0,90" fill="none" stroke="#e1d6b5" stroke-width="8" stroke-linejoin="round"/><circle cx="40.0" cy="124" r="2.5" fill="#e1d6b5"/><circle cx="50.0" cy="124" r="2.5" fill="#e1d6b5"/><circle cx="60.0" cy="124" r="2.5" fill="#e1d6b5"/><circle cx="70.0" cy="124" r="2.5" fill="#e1d6b5"/><circle cx="80.0" cy="124" r="2.5" fill="#e1d6b5"/><circle cx="90.0" cy="124" r="2.5" fill="#e1d6b5"/><circle cx="100.0" cy="124" r="2.5" fill="#e1d6b5"/><circle cx="110.0" cy="124" r="2.5" fill="#e1d6b5"/></svg>
