<svg xmlns="http://www.w3.org/2000/svg" viewBox="0 0 160 144"><circle cx="80" cy="72" r="52" fill="#202b27" stroke="#897655" stroke-width="3"/><ellipse cx="80" cy="72" rx="27" ry="20" fill="#e1d6b5"/><path d="M48.0 52 l-5 -14 M48.0 92 l5 14" stroke="#e1d6b5" stroke-width="3"/><path d="M56.0 52 l-5 -14 M56.0 92 l5 14" stroke="#e1d6b5" stroke-width="3"/><path d="M64.0 52 l-5 -14 M64.0 92 l5 14" stroke="#e1d6b5" stroke-width="3"/><path d="M72.0 52 l-5 -14 M72.0 92 l5 14" stroke="#e1d6b5" stroke-width="3"/><path d="M80.0 52 l-5 -14 M80.0 92 l5 14" stroke="#e1d6b5" stroke-width="3"/><path d="M88.0 52 l-5 -14 M88.0 92 l5 14" stroke="#e1d6b5" stroke-width="3"/><path d="M96.0 52 l-5 -14 M96.0 92 l5 14" stroke="#e1d6b5" stroke-width="3"/><path d="M104.0 52 l-5 -14 M104.0 92 l5 14" stroke="#e1d6b5" stroke-width="3"/><circle cx="40.0" cy="124" r="2.5" fill="#e1d6b5"/><circle cx="50.0" cy="124" r="2.5" fill="#e1d6b5"/><circle cx="60.0" cy="124" r="2.5" fill="#e1d6b5"/><circle cx="70.0" cy="124" r="2.5" fill="#e1d6b5"/><circle cx="80.0" cy="124" r="2.5" fill="#e1d6b5"/><circle cx="90.0" cy="124" r="2.5" fill="#e1d6b5"/><circle cx="100.0" cy="124" r="2.5" fill="#e1d6b5"/><circle cx="110.0" cy="124" r="2.5" fill="#e1d6b5"/></svg>
